<svg version="1.2" xmlns="http://www.w3.org/2000/svg" viewBox="0 0 2048 460" width="2048" height="460">
	<style>
		.s0 { fill: #ffffff } 
	</style>
	<path id="CHORIDOR" class="s0" aria-label="CHORIDOR"  d="m128.5 321.2q14 0 21.8-2.9 8-2.9 12.4-7.1 4.4-4.2 7.7-8.4 3-3.8 4.9-5.7 2.1-2 5.8-2.7 3-1 9.7-1.2 6.9-0.3 13.6-0.3 6.9 0 9.5 0.3 4 0.2 5.6 1.6 1.5 1.3 1.9 5.7 0.5 6.1 0.5 14.5 0.2 8.4-0.1 14.6-0.2 1.9-0.8 3.2-0.4 1.4-1.9 4-1.9 3.1-7.5 9-5.5 5.8-16.2 12.1-10.7 6.1-27.7 10.5-16.8 4.4-41.4 4.4-26.4 0-49.3-6.7-22.9-6.9-40.3-23-17.2-16-27-43.4-9.5-27.3-9.5-68.2 0-45.5 15.7-77.3 15.8-31.9 44.8-48.5 29.1-16.7 68.8-16.7 27.9 0 44.7 5.8 17 5.7 25.8 13.5 8.8 7.7 12.4 13.4 1.3 2.1 1.9 3.8 0.6 1.6 0.8 5 0.5 4.6 0.2 13.4-0.2 8.8-1.4 15.5-0.7 4.2-2.5 5.5-0.7 0.8-2.6 1.4-1.9 0.5-5.8 0.5-6.1 0-13.7-0.3-7.7-0.6-11.5-1.2-4.6-0.7-6.7-2.1-2.1-1.5-4.2-4.6-3.4-4.9-11.8-11.5-8.4-6.5-27.7-6.5-27.1 0-44.7 21.1-17.6 20.8-17.6 67.7 0 46.6 18.4 69.2 18.5 22.6 45 22.6zm311.2-118v-78.8q0-5.5 1.9-8.4 8.6-12.6 24.1-26.6 2.9-2.3 5-2.3 2.2 0 4.7 2.3 8.4 7.3 14.2 14 5.7 6.5 9.9 12.6 1.9 3 1.9 8.4v233.5q0 5.7-2.5 8-2.3 2.1-8 2.1h-40.7q-5.7 0-8.2-2.1-2.3-2.3-2.3-8v-101.6h-113.4v101.6q0 5.7-2.5 8-2.3 2.1-8 2.1h-40.7q-5.8 0-8.2-2.1-2.3-2.3-2.3-8v-254q0-5.7 2.3-7.8 2.4-2.3 8.2-2.3h40.7q5.7 0 8 2.3 2.5 2.1 2.5 7.8v99.3zm240.3 169.6q-39.8 0-69.2-15.3-29.4-15.3-45.6-46.1-16.1-30.8-16.1-76.9 0-73.2 35.8-109.1 35.7-36.2 99.5-36.2 59.7 0 94.5 35.4 34.8 35.2 34.8 104.4 0 48.9-16.3 80.9-16.2 31.7-46.2 47.4-30 15.5-71.2 15.5zm1.1-51.6q34.4 0 51-24.7 16.6-24.7 16.6-64.1 0-45.7-15.6-68.6-15.7-23-50.5-23-68.5 0-68.5 90.5 0 40.3 16.4 65.2 16.6 24.7 50.6 24.7zm242.1-156.3v193q0 5.7-2.5 8-2.3 2.1-8 2.1h-40.7q-5.7 0-8.2-2.1-2.3-2.3-2.3-8v-212.9q0-19.1 3.4-30.2 3.7-11.2 13.8-16 10.3-5 30-5h50.6q99.7 0 99.7 76.7 0 23.3-7.8 38.2-7.9 14.9-19.5 23.3-11.7 8.3-22.9 12.5v0.9q12.8 8.4 24.2 22.2 11.7 13.6 21 29.7 9.4 15.8 15.9 31.5 6.5 15.5 9 27.7 1.1 5.8 0 8.6-1 2.9-6.5 2.9h-44.1q-5 0-8.8-2.1-3.7-2.1-6.7-9.8-14.5-36.5-33.4-59.4-19-23.2-36.5-37.1-11.3-9-11.3-12.8 0-3.1 3.6-8.4 2.3-3.3 6.7-7.9 4.4-4.6 7.7-6.9 3.2-2.3 5.1-2.8 2.1-0.6 6.3-0.6 14.2 0 23.5-9.8 9.6-9.7 9.6-30.7 0-19.9-10.2-29.1-9.9-9.4-27.5-9.4h-11.4q-12.6 0-17.2 5.4-4.6 5.3-4.6 18.3zm255-40.5v233.5q0 5.7-2.5 8-2.3 2.1-8 2.1h-40.7q-5.7 0-8.2-2.1-2.3-2.3-2.3-8v-233.5q0-5.5 1.9-8.4 8.6-12.6 24.1-26.6 2.8-2.3 4.9-2.3 2.3 0 4.8 2.3 8.4 7.3 14.2 14 5.7 6.5 9.9 12.6 1.9 3 1.9 8.4zm167.1 243.6h-58.6q-19.7 0-30-5-10.1-4.9-13.8-16.2-3.4-11.3-3.4-30v-171.8q0-19.1 3.4-30.2 3.7-11.2 13.8-16 10.3-5 30-5h58.6q41.1 0 71.8 12.2 31 12.3 48.2 41.5 17.2 29.1 17.2 80 0 50.8-17.2 81.8-17.2 30.8-48.2 44.7-30.7 14-71.8 14zm-13.9-223.9h-8.4q-12.6 0-17.2 5.3-4.6 5.4-4.6 18.4v126.2q0 12.8 4.6 18.4 4.6 5.5 17.2 5.5h8.8q40.8 0 63.2-20.1 22.5-20.1 22.5-69.6 0-33.1-10.3-51.2-10.1-18.4-29.4-25.6-19.3-7.3-46.4-7.3zm315.6 228.7q-39.8 0-69.2-15.3-29.4-15.3-45.6-46.1-16.1-30.8-16.1-76.9 0-73.2 35.8-109.1 35.7-36.2 99.5-36.2 59.7 0 94.5 35.4 34.8 35.2 34.8 104.4 0 48.9-16.3 80.9-16.2 31.7-46.2 47.4-30 15.5-71.2 15.5zm1.1-51.6q34.4 0 51-24.7 16.6-24.7 16.6-64.1 0-45.7-15.6-68.6-15.7-23-50.5-23-68.5 0-68.5 90.5 0 40.3 16.4 65.2 16.6 24.7 50.6 24.7zm242.1-156.3v193q0 5.7-2.5 8-2.3 2.1-8 2.1h-40.7q-5.7 0-8.2-2.1-2.3-2.3-2.3-8v-212.9q0-19.1 3.4-30.2 3.7-11.2 13.8-16 10.3-5 30-5h50.6q99.7 0 99.7 76.7 0 23.3-7.8 38.2-7.9 14.9-19.5 23.3-11.7 8.3-22.9 12.5v0.9q12.8 8.4 24.2 22.2 11.7 13.6 21 29.7 9.4 15.8 15.9 31.5 6.5 15.5 9 27.7 1.1 5.8 0 8.6-1 2.9-6.5 2.9h-44.1q-5 0-8.8-2.1-3.7-2.1-6.7-9.8-14.5-36.5-33.4-59.4-19-23.2-36.5-37.1-11.3-9-11.3-12.8 0-3.1 3.6-8.4 2.3-3.3 6.7-7.9 4.4-4.6 7.7-6.9 3.2-2.3 5.1-2.8 2.1-0.6 6.3-0.6 14.2 0 23.5-9.8 9.6-9.7 9.6-30.7 0-19.9-10.2-29.1-9.9-9.4-27.5-9.4h-11.4q-12.6 0-17.2 5.4-4.6 5.3-4.6 18.3z"/>
	<path id="Shape 1" fill-rule="evenodd" class="s0" d="m1153.83 411.84v34.16c0 7.73-6.26 14-14 14h-1125.83c-7.73 0-14-6.27-14-14v-34.16c0-7.73 6.27-14 14-14h1125.83c7.74 0 14 6.27 14 14z"/>
	<path id="Shape 1 copy 3" fill-rule="evenodd" class="s0" d="m2048 7v48.16c0 3.87-3.13 7-7 7h-901.62c-3.86 0-7-3.13-7-7v-48.16c0-3.87 3.14-7 7-7h901.62c3.87 0 7 3.13 7 7z"/>
	<path id="Shape 1 copy 4" fill-rule="evenodd" class="s0" d="m1164 14v34.16c0 7.73-6.27 14-14 14h-19.42c-7.73 0-14-6.27-14-14v-34.16c0-7.73 6.27-14 14-14h19.42c7.73 0 14 6.27 14 14z"/>
	<path id="Shape 1 copy 5" fill-rule="evenodd" class="s0" d="m1178.67 411.84v34.16c0 7.73-6.27 14-14 14h-19.42c-7.73 0-14-6.27-14-14v-34.16c0-7.73 6.27-14 14-14h19.42c7.73 0 14 6.27 14 14z"/>
	<path id="Shape 1 copy" fill-rule="evenodd" class="s0" d="m1171.67 441.92h-48.09c-3.87 0-7-3.14-7-7v-397.4c0-3.87 3.13-7 7-7h48.09c3.87 0 7 3.13 7 7v397.4c0 3.86-3.13 7-7 7z"/>
</svg>